<svg width="1422" height="300" viewBox="0 0 1422 300" fill="none" xmlns="http://www.w3.org/2000/svg">
<path d="M13.125 183.281V178.594C13.125 178.125 13.125 177.188 13.125 176.719C20.625 176.25 26.7188 170.156 26.7188 162.656C26.7188 155.156 20.625 148.594 13.125 148.594C13.125 146.719 13.125 144.375 13.125 142.5C13.125 138.75 14.5312 134.062 16.4062 130.781C26.25 112.5 37.0312 94.6875 47.3437 76.4062C49.6875 71.7187 53.4375 69.8438 58.5937 69.8438C69.8437 69.8438 81.0937 69.8438 92.3438 69.8438C102.656 69.8438 107.812 74.5313 107.812 85.3125C107.812 116.719 107.812 148.125 107.812 179.063V183.75H195.469C191.719 188.438 189.375 191.719 187.5 194.531H103.125C95.1562 180.469 80.1563 172.5 66.5625 172.031C55.7813 172.031 45.9375 174.375 37.9687 180.937C25.3125 190.781 19.6875 204.375 20.625 220.312C10.7813 221.25 6.5625 220.781 3.28125 212.813V190.312C5.15625 186.562 7.96874 183.281 13.125 183.281ZM43.5937 126.563C50.625 126.563 57.6562 126.563 64.6875 126.563C71.25 126.563 77.8125 126.563 84.8437 126.563C87.6562 126.563 89.0625 125.625 89.0625 122.813C89.0625 112.969 89.0625 102.656 89.0625 92.8125C89.0625 89.5312 88.125 88.125 84.8437 88.125C77.8125 88.125 71.25 88.125 64.2188 88.125C62.8125 88.125 60.4688 89.5312 59.5312 90.9375C53.4375 101.25 47.3438 112.031 41.7188 122.344C39.375 125.156 40.3125 126.563 43.5937 126.563ZM108.75 209.531H182.344C181.875 212.344 181.875 216.094 181.875 220.312H109.219C109.219 217.031 109.219 213.281 108.75 209.531ZM13.125 155.156C16.875 155.625 19.6875 158.438 19.6875 162.656C19.6875 166.406 16.875 169.687 13.125 170.156C13.125 165 13.125 160.312 13.125 155.156Z" fill="#FF5722"/>
<path d="M59.9999 186.094C76.4062 183.281 92.8124 194.062 96.5624 210C100.781 227.812 89.0624 248.437 70.3124 251.25C50.6249 254.531 31.4062 237.656 31.8749 217.969C32.3437 202.031 44.0624 188.437 59.9999 186.094ZM64.6874 232.969C72.6562 232.969 79.2187 226.875 79.2187 218.437C79.2187 210.469 73.125 204.375 65.1562 204.375C56.7187 204.375 50.6249 210.469 50.6249 218.437C50.6249 226.406 56.7187 232.969 64.6874 232.969Z" fill="black"/>
<path d="M214.219 187.5C229.687 181.406 247.969 188.437 255.469 203.906C262.969 219.375 257.812 238.125 242.812 246.562C224.531 256.875 201.562 248.906 194.531 228.75C188.906 211.875 197.344 194.531 214.219 187.5ZM225.937 232.969C233.906 232.969 240.469 226.406 240.469 218.437C240.469 210.469 234.375 203.906 225.937 203.906C217.969 203.906 211.875 210 211.875 217.969C211.406 226.406 217.969 232.969 225.937 232.969Z" fill="black"/>
<path d="M269.531 209.531C270 212.812 270 216.562 270 220.312C276.562 220.312 282.656 220.781 288.75 220.312C293.437 219.844 296.25 216.094 296.719 211.406C296.719 210.937 296.719 210.469 296.719 209.531H269.531Z" fill="#FF5722"/>
<path d="M255.469 183.75C258.75 187.031 262.031 190.781 263.906 194.531H296.719C296.719 194.062 296.719 193.125 296.719 192.656C296.719 187.969 293.437 183.75 288.75 183.75C277.969 183.281 267.187 183.75 255.469 183.75Z" fill="#FF5722"/>
<path d="M116.719 57.6562V175.313H290.156V57.6562C290.156 52.5 285.938 48.2812 280.781 48.2812H125.625C120.937 48.2812 116.719 52.5 116.719 57.6562Z" fill="#000080"/>
<path d="M362.568 56.728C359.304 56.728 356.616 57.4 354.504 58.744C352.392 60.088 351.336 62.136 351.336 64.888C351.336 67.576 352.392 69.656 354.504 71.128C356.616 72.536 361.096 74.072 367.944 75.736C374.856 77.4 380.04 79.736 383.496 82.744C387.016 85.752 388.776 90.2 388.776 96.088C388.776 101.912 386.568 106.648 382.152 110.296C377.736 113.944 371.944 115.768 364.776 115.768C354.28 115.768 344.968 112.152 336.84 104.92L343.944 96.376C350.728 102.264 357.768 105.208 365.064 105.208C368.712 105.208 371.592 104.44 373.704 102.904C375.88 101.304 376.968 99.224 376.968 96.664C376.968 94.04 375.944 92.024 373.896 90.616C371.912 89.144 368.456 87.832 363.528 86.68C358.6 85.464 354.856 84.376 352.296 83.416C349.736 82.392 347.464 81.08 345.48 79.48C341.512 76.472 339.528 71.864 339.528 65.656C339.528 59.448 341.768 54.68 346.248 51.352C350.792 47.96 356.392 46.264 363.048 46.264C367.336 46.264 371.592 46.968 375.816 48.376C380.04 49.784 383.688 51.768 386.76 54.328L380.712 62.872C378.728 61.08 376.04 59.608 372.648 58.456C369.256 57.304 365.896 56.728 362.568 56.728ZM456.349 69.688C456.349 80.76 451.517 87.736 441.853 90.616L459.421 115H445.021L428.989 92.44H414.109V115H402.781V47.896H427.741C437.981 47.896 445.309 49.624 449.725 53.08C454.141 56.536 456.349 62.072 456.349 69.688ZM428.221 82.168C434.621 82.168 438.973 81.176 441.277 79.192C443.581 77.208 444.733 74.04 444.733 69.688C444.733 65.272 443.549 62.264 441.181 60.664C438.813 59 434.589 58.168 428.509 58.168H414.109V82.168H428.221ZM472.625 47.896H483.953V115H472.625V47.896ZM549.131 56.728C545.867 56.728 543.179 57.4 541.067 58.744C538.955 60.088 537.899 62.136 537.899 64.888C537.899 67.576 538.955 69.656 541.067 71.128C543.179 72.536 547.659 74.072 554.507 75.736C561.419 77.4 566.603 79.736 570.059 82.744C573.579 85.752 575.339 90.2 575.339 96.088C575.339 101.912 573.131 106.648 568.715 110.296C564.299 113.944 558.507 115.768 551.339 115.768C540.843 115.768 531.531 112.152 523.403 104.92L530.507 96.376C537.291 102.264 544.331 105.208 551.627 105.208C555.275 105.208 558.155 104.44 560.267 102.904C562.443 101.304 563.531 99.224 563.531 96.664C563.531 94.04 562.507 92.024 560.459 90.616C558.475 89.144 555.019 87.832 550.091 86.68C545.163 85.464 541.419 84.376 538.859 83.416C536.299 82.392 534.027 81.08 532.043 79.48C528.075 76.472 526.091 71.864 526.091 65.656C526.091 59.448 528.331 54.68 532.811 51.352C537.355 47.96 542.955 46.264 549.611 46.264C553.899 46.264 558.155 46.968 562.379 48.376C566.603 49.784 570.251 51.768 573.323 54.328L567.275 62.872C565.291 61.08 562.603 59.608 559.211 58.456C555.819 57.304 552.459 56.728 549.131 56.728ZM598.191 99.736L591.471 115H579.375L608.943 47.896H621.039L650.607 115H638.511L631.791 99.736H598.191ZM627.183 89.272L614.991 61.624L602.799 89.272H627.183ZM680.031 58.264V115H668.703V58.264H648.351V47.896H700.383V58.264H680.031ZM739.025 115H727.505V88.504L702.544 47.896H714.929L733.265 78.424L751.601 47.896H763.985L739.025 88.504V115ZM777.16 99.736L770.44 115H758.344L787.912 47.896H800.008L829.576 115H817.48L810.76 99.736H777.16ZM806.152 89.272L793.96 61.624L781.768 89.272H806.152ZM889.21 47.896H900.538V115H888.25L850.234 66.04V115H838.906V47.896H850.234L889.21 98.008V47.896ZM928.66 99.736L921.94 115H909.844L939.412 47.896H951.508L981.076 115H968.98L962.26 99.736H928.66ZM957.652 89.272L945.46 61.624L933.268 89.272H957.652ZM1043.97 69.688C1043.97 80.76 1039.14 87.736 1029.48 90.616L1047.05 115H1032.65L1016.61 92.44H1001.73V115H990.406V47.896H1015.37C1025.61 47.896 1032.93 49.624 1037.35 53.08C1041.77 56.536 1043.97 62.072 1043.97 69.688ZM1015.85 82.168C1022.25 82.168 1026.6 81.176 1028.9 79.192C1031.21 77.208 1032.36 74.04 1032.36 69.688C1032.36 65.272 1031.17 62.264 1028.81 60.664C1026.44 59 1022.21 58.168 1016.13 58.168H1001.73V82.168H1015.85ZM1069.75 99.736L1063.03 115H1050.94L1080.51 47.896H1092.6L1122.17 115H1110.07L1103.35 99.736H1069.75ZM1098.75 89.272L1086.55 61.624L1074.36 89.272H1098.75ZM1153.02 115H1141.5V88.504L1116.54 47.896H1128.93L1147.26 78.424L1165.6 47.896H1177.98L1153.02 88.504V115ZM1191.16 99.736L1184.44 115H1172.34L1201.91 47.896H1214.01L1243.58 115H1231.48L1224.76 99.736H1191.16ZM1220.15 89.272L1207.96 61.624L1195.77 89.272H1220.15ZM1303.21 47.896H1314.54V115H1302.25L1264.23 66.04V115H1252.91V47.896H1264.23L1303.21 98.008V47.896ZM1342.66 99.736L1335.94 115H1323.84L1353.41 47.896H1365.51L1395.08 115H1382.98L1376.26 99.736H1342.66ZM1371.65 89.272L1359.46 61.624L1347.27 89.272H1371.65ZM389.448 162.896V173.552H353.64V191.312H385.8V201.392H353.64V219.344H390.6V230H342.312V162.896H389.448ZM408.964 162.896H420.292V230H408.964V162.896ZM473.335 219.728C477.239 219.728 480.599 219.088 483.415 217.808C486.231 216.464 489.175 214.352 492.247 211.472L499.543 218.96C492.439 226.832 483.799 230.768 473.623 230.768C463.511 230.768 455.095 227.504 448.375 220.976C441.719 214.448 438.391 206.192 438.391 196.208C438.391 186.224 441.783 177.904 448.567 171.248C455.415 164.592 464.023 161.264 474.391 161.264C484.823 161.264 493.527 165.104 500.503 172.784L493.303 180.656C490.103 177.584 487.063 175.44 484.183 174.224C481.367 173.008 478.039 172.4 474.199 172.4C467.415 172.4 461.719 174.608 457.111 179.024C452.503 183.376 450.199 188.976 450.199 195.824C450.199 202.608 452.471 208.304 457.015 212.912C461.623 217.456 467.063 219.728 473.335 219.728ZM517.238 230V162.896H528.566V191.984H561.878V162.896H573.206V230H561.878V202.544H528.566V230H517.238ZM642.839 162.896V173.552H607.031V191.312H639.191V201.392H607.031V219.344H643.991V230H595.703V162.896H642.839ZM715.924 184.688C715.924 195.76 711.092 202.736 701.428 205.616L718.996 230H704.596L688.564 207.44H673.684V230H662.356V162.896H687.316C697.556 162.896 704.884 164.624 709.3 168.08C713.716 171.536 715.924 177.072 715.924 184.688ZM687.796 197.168C694.196 197.168 698.548 196.176 700.852 194.192C703.156 192.208 704.308 189.04 704.308 184.688C704.308 180.272 703.124 177.264 700.756 175.664C698.388 174 694.164 173.168 688.084 173.168H673.684V197.168H687.796ZM791.567 173.264V230H780.239V173.264H759.887V162.896H811.919V173.264H791.567ZM881.569 184.688C881.569 195.76 876.737 202.736 867.073 205.616L884.641 230H870.241L854.209 207.44H839.329V230H828.001V162.896H852.961C863.201 162.896 870.529 164.624 874.945 168.08C879.361 171.536 881.569 177.072 881.569 184.688ZM853.441 197.168C859.841 197.168 864.193 196.176 866.497 194.192C868.801 192.208 869.953 189.04 869.953 184.688C869.953 180.272 868.769 177.264 866.401 175.664C864.033 174 859.809 173.168 853.729 173.168H839.329V197.168H853.441ZM911.188 214.736L904.468 230H892.372L921.941 162.896H934.036L963.605 230H951.509L944.788 214.736H911.188ZM940.181 204.272L927.988 176.624L915.796 204.272H940.181ZM1027.08 162.896H1038.41V230H1026.12L988.103 181.04V230H976.775V162.896H988.103L1027.08 213.008V162.896ZM1081.12 171.728C1077.86 171.728 1075.17 172.4 1073.06 173.744C1070.94 175.088 1069.89 177.136 1069.89 179.888C1069.89 182.576 1070.94 184.656 1073.06 186.128C1075.17 187.536 1079.65 189.072 1086.5 190.736C1093.41 192.4 1098.59 194.736 1102.05 197.744C1105.57 200.752 1107.33 205.2 1107.33 211.088C1107.33 216.912 1105.12 221.648 1100.7 225.296C1096.29 228.944 1090.5 230.768 1083.33 230.768C1072.83 230.768 1063.52 227.152 1055.39 219.92L1062.5 211.376C1069.28 217.264 1076.32 220.208 1083.62 220.208C1087.26 220.208 1090.14 219.44 1092.26 217.904C1094.43 216.304 1095.52 214.224 1095.52 211.664C1095.52 209.04 1094.5 207.024 1092.45 205.616C1090.46 204.144 1087.01 202.832 1082.08 201.68C1077.15 200.464 1073.41 199.376 1070.85 198.416C1068.29 197.392 1066.02 196.08 1064.03 194.48C1060.06 191.472 1058.08 186.864 1058.08 180.656C1058.08 174.448 1060.32 169.68 1064.8 166.352C1069.34 162.96 1074.94 161.264 1081.6 161.264C1085.89 161.264 1090.14 161.968 1094.37 163.376C1098.59 164.784 1102.24 166.768 1105.31 169.328L1099.26 177.872C1097.28 176.08 1094.59 174.608 1091.2 173.456C1087.81 172.304 1084.45 171.728 1081.12 171.728ZM1148.21 162.896C1158.39 162.896 1165.81 164.848 1170.49 168.752C1175.16 172.656 1177.49 178.672 1177.49 186.8C1177.49 194.928 1175.09 200.88 1170.29 204.656C1165.56 208.432 1158.26 210.32 1148.41 210.32H1136.5V230H1125.17V162.896H1148.21ZM1149.65 200.048C1155.93 200.048 1160.18 198.864 1162.42 196.496C1164.73 194.064 1165.88 190.544 1165.88 185.936C1165.88 181.264 1164.44 177.968 1161.56 176.048C1158.68 174.128 1154.17 173.168 1148.02 173.168H1136.5V200.048H1149.65ZM1242.45 178.736C1237.9 174 1232.3 171.632 1225.65 171.632C1218.99 171.632 1213.36 174 1208.75 178.736C1204.21 183.472 1201.93 189.232 1201.93 196.016C1201.93 202.736 1204.21 208.464 1208.75 213.2C1213.36 217.936 1218.99 220.304 1225.65 220.304C1232.3 220.304 1237.9 217.936 1242.45 213.2C1247.05 208.464 1249.36 202.736 1249.36 196.016C1249.36 189.232 1247.05 183.472 1242.45 178.736ZM1250.8 220.784C1244.01 227.376 1235.63 230.672 1225.65 230.672C1215.66 230.672 1207.28 227.376 1200.49 220.784C1193.71 214.128 1190.32 205.872 1190.32 196.016C1190.32 186.096 1193.71 177.84 1200.49 171.248C1207.28 164.592 1215.66 161.264 1225.65 161.264C1235.63 161.264 1244.01 164.592 1250.8 171.248C1257.58 177.84 1260.97 186.096 1260.97 196.016C1260.97 205.872 1257.58 214.128 1250.8 220.784ZM1332.67 184.688C1332.67 195.76 1327.84 202.736 1318.18 205.616L1335.74 230H1321.34L1305.31 207.44H1290.43V230H1279.1V162.896H1304.06C1314.3 162.896 1321.63 164.624 1326.05 168.08C1330.46 171.536 1332.67 177.072 1332.67 184.688ZM1304.54 197.168C1310.94 197.168 1315.3 196.176 1317.6 194.192C1319.9 192.208 1321.06 189.04 1321.06 184.688C1321.06 180.272 1319.87 177.264 1317.5 175.664C1315.14 174 1310.91 173.168 1304.83 173.168H1290.43V197.168H1304.54ZM1377.19 173.264V230H1365.87V173.264H1345.51V162.896H1397.55V173.264H1377.19Z" fill="#D2691E"/>
</svg>
