<svg width="1422" height="300" viewBox="0 0 1422 300" fill="none" xmlns="http://www.w3.org/2000/svg">
<path d="M13.125 183.281V178.594C13.125 178.125 13.125 177.188 13.125 176.719C20.625 176.25 26.7188 170.156 26.7188 162.656C26.7188 155.156 20.625 148.594 13.125 148.594C13.125 146.719 13.125 144.375 13.125 142.5C13.125 138.75 14.5312 134.062 16.4062 130.781C26.25 112.5 37.0312 94.6875 47.3437 76.4062C49.6875 71.7187 53.4375 69.8438 58.5938 69.8438C69.8438 69.8438 81.0938 69.8438 92.3438 69.8438C102.656 69.8438 107.812 74.5313 107.812 85.3125C107.812 116.719 107.812 148.125 107.812 179.063V183.75H195.469C191.719 188.438 189.375 191.719 187.5 194.531H103.125C95.1562 180.469 80.1562 172.5 66.5625 172.031C55.7812 172.031 45.9375 174.375 37.9687 180.937C25.3125 190.781 19.6875 204.375 20.625 220.312C10.7812 221.25 6.5625 220.781 3.28125 212.813V190.312C5.15625 186.562 7.96875 183.281 13.125 183.281ZM43.5938 126.562C50.625 126.562 57.6562 126.562 64.6875 126.562C71.25 126.562 77.8125 126.562 84.8437 126.562C87.6562 126.562 89.0625 125.625 89.0625 122.813C89.0625 112.969 89.0625 102.656 89.0625 92.8125C89.0625 89.5312 88.125 88.125 84.8437 88.125C77.8125 88.125 71.25 88.125 64.2188 88.125C62.8125 88.125 60.4688 89.5312 59.5312 90.9375C53.4375 101.25 47.3438 112.031 41.7188 122.344C39.375 125.156 40.3125 126.562 43.5938 126.562ZM108.75 209.531H182.344C181.875 212.344 181.875 216.094 181.875 220.312H109.219C109.219 217.031 109.219 213.281 108.75 209.531ZM13.125 155.156C16.875 155.625 19.6875 158.438 19.6875 162.656C19.6875 166.406 16.875 169.688 13.125 170.156C13.125 165 13.125 160.312 13.125 155.156Z" fill="#FF5722"/>
<path d="M59.9999 186.094C76.4062 183.281 92.8124 194.063 96.5624 210C100.781 227.813 89.0624 248.438 70.3124 251.25C50.625 254.531 31.4062 237.656 31.8749 217.969C32.3437 202.031 44.0624 188.438 59.9999 186.094ZM64.6874 232.969C72.6562 232.969 79.2187 226.875 79.2187 218.438C79.2187 210.469 73.125 204.375 65.1562 204.375C56.7187 204.375 50.6249 210.469 50.6249 218.438C50.6249 226.406 56.7187 232.969 64.6874 232.969Z" fill="black"/>
<path d="M214.219 187.5C229.687 181.406 247.969 188.437 255.469 203.906C262.969 219.375 257.812 238.125 242.812 246.562C224.531 256.875 201.562 248.906 194.531 228.75C188.906 211.875 197.344 194.531 214.219 187.5ZM225.937 232.969C233.906 232.969 240.469 226.406 240.469 218.437C240.469 210.469 234.375 203.906 225.937 203.906C217.969 203.906 211.875 210 211.875 217.969C211.406 226.406 217.969 232.969 225.937 232.969Z" fill="black"/>
<path d="M269.531 209.531C270 212.812 270 216.562 270 220.312C276.562 220.312 282.656 220.781 288.75 220.312C293.437 219.844 296.25 216.094 296.719 211.406C296.719 210.937 296.719 210.469 296.719 209.531H269.531Z" fill="#FF5722"/>
<path d="M255.469 183.75C258.75 187.031 262.031 190.781 263.906 194.531H296.719C296.719 194.063 296.719 193.125 296.719 192.656C296.719 187.969 293.437 183.75 288.75 183.75C277.969 183.281 267.188 183.75 255.469 183.75Z" fill="#FF5722"/>
<path d="M116.719 57.6562V175.313H290.156V57.6562C290.156 52.5 285.938 48.2812 280.781 48.2812H125.625C120.937 48.2812 116.719 52.5 116.719 57.6562Z" fill="#000080"/>
<path d="M362.568 56.728C359.304 56.728 356.616 57.4 354.504 58.744C352.392 60.088 351.336 62.136 351.336 64.888C351.336 67.576 352.392 69.656 354.504 71.128C356.616 72.536 361.096 74.072 367.944 75.736C374.856 77.4 380.04 79.736 383.496 82.744C387.016 85.752 388.776 90.2 388.776 96.088C388.776 101.912 386.568 106.648 382.152 110.296C377.736 113.944 371.944 115.768 364.776 115.768C354.28 115.768 344.968 112.152 336.84 104.92L343.944 96.376C350.728 102.264 357.768 105.208 365.064 105.208C368.712 105.208 371.592 104.44 373.704 102.904C375.88 101.304 376.968 99.224 376.968 96.664C376.968 94.04 375.944 92.024 373.896 90.616C371.912 89.144 368.456 87.832 363.528 86.68C358.6 85.464 354.856 84.376 352.296 83.416C349.736 82.392 347.464 81.08 345.48 79.48C341.512 76.472 339.528 71.864 339.528 65.656C339.528 59.448 341.768 54.68 346.248 51.352C350.792 47.96 356.392 46.264 363.048 46.264C367.336 46.264 371.592 46.968 375.816 48.376C380.04 49.784 383.688 51.768 386.76 54.328L380.712 62.872C378.728 61.08 376.04 59.608 372.648 58.456C369.256 57.304 365.896 56.728 362.568 56.728ZM456.349 69.688C456.349 80.76 451.517 87.736 441.853 90.616L459.421 115H445.021L428.989 92.44H414.109V115H402.781V47.896H427.741C437.981 47.896 445.309 49.624 449.725 53.08C454.141 56.536 456.349 62.072 456.349 69.688ZM428.221 82.168C434.621 82.168 438.973 81.176 441.277 79.192C443.581 77.208 444.733 74.04 444.733 69.688C444.733 65.272 443.549 62.264 441.181 60.664C438.813 59 434.589 58.168 428.509 58.168H414.109V82.168H428.221ZM472.625 47.896H483.953V115H472.625V47.896ZM549.131 56.728C545.867 56.728 543.179 57.4 541.067 58.744C538.955 60.088 537.899 62.136 537.899 64.888C537.899 67.576 538.955 69.656 541.067 71.128C543.179 72.536 547.659 74.072 554.507 75.736C561.419 77.4 566.603 79.736 570.059 82.744C573.579 85.752 575.339 90.2 575.339 96.088C575.339 101.912 573.131 106.648 568.715 110.296C564.299 113.944 558.507 115.768 551.339 115.768C540.843 115.768 531.531 112.152 523.403 104.92L530.507 96.376C537.291 102.264 544.331 105.208 551.627 105.208C555.275 105.208 558.155 104.44 560.267 102.904C562.443 101.304 563.531 99.224 563.531 96.664C563.531 94.04 562.507 92.024 560.459 90.616C558.475 89.144 555.019 87.832 550.091 86.68C545.163 85.464 541.419 84.376 538.859 83.416C536.299 82.392 534.027 81.08 532.043 79.48C528.075 76.472 526.091 71.864 526.091 65.656C526.091 59.448 528.331 54.68 532.811 51.352C537.355 47.96 542.955 46.264 549.611 46.264C553.899 46.264 558.155 46.968 562.379 48.376C566.603 49.784 570.251 51.768 573.323 54.328L567.275 62.872C565.291 61.08 562.603 59.608 559.211 58.456C555.819 57.304 552.459 56.728 549.131 56.728ZM598.191 99.736L591.471 115H579.375L608.943 47.896H621.039L650.607 115H638.511L631.791 99.736H598.191ZM627.183 89.272L614.991 61.624L602.799 89.272H627.183ZM680.031 58.264V115H668.703V58.264H648.351V47.896H700.383V58.264H680.031ZM739.025 115H727.505V88.504L702.544 47.896H714.929L733.265 78.424L751.601 47.896H763.985L739.025 88.504V115ZM777.16 99.736L770.44 115H758.344L787.912 47.896H800.008L829.576 115H817.48L810.76 99.736H777.16ZM806.152 89.272L793.96 61.624L781.768 89.272H806.152ZM889.21 47.896H900.538V115H888.25L850.234 66.04V115H838.906V47.896H850.234L889.21 98.008V47.896ZM928.66 99.736L921.94 115H909.844L939.412 47.896H951.508L981.076 115H968.98L962.26 99.736H928.66ZM957.652 89.272L945.46 61.624L933.268 89.272H957.652ZM1043.97 69.688C1043.97 80.76 1039.14 87.736 1029.48 90.616L1047.05 115H1032.65L1016.61 92.44H1001.73V115H990.406V47.896H1015.37C1025.61 47.896 1032.93 49.624 1037.35 53.08C1041.77 56.536 1043.97 62.072 1043.97 69.688ZM1015.85 82.168C1022.25 82.168 1026.6 81.176 1028.9 79.192C1031.21 77.208 1032.36 74.04 1032.36 69.688C1032.36 65.272 1031.17 62.264 1028.81 60.664C1026.44 59 1022.21 58.168 1016.13 58.168H1001.73V82.168H1015.85ZM1069.75 99.736L1063.03 115H1050.94L1080.51 47.896H1092.6L1122.17 115H1110.07L1103.35 99.736H1069.75ZM1098.75 89.272L1086.55 61.624L1074.36 89.272H1098.75ZM1153.02 115H1141.5V88.504L1116.54 47.896H1128.93L1147.26 78.424L1165.6 47.896H1177.98L1153.02 88.504V115ZM1191.16 99.736L1184.44 115H1172.34L1201.91 47.896H1214.01L1243.58 115H1231.48L1224.76 99.736H1191.16ZM1220.15 89.272L1207.96 61.624L1195.77 89.272H1220.15ZM1303.21 47.896H1314.54V115H1302.25L1264.23 66.04V115H1252.91V47.896H1264.23L1303.21 98.008V47.896ZM1342.66 99.736L1335.94 115H1323.84L1353.41 47.896H1365.51L1395.08 115H1382.98L1376.26 99.736H1342.66ZM1371.65 89.272L1359.46 61.624L1347.27 89.272H1371.65ZM388.776 197.36H400.104V220.304C393.768 227.28 384.712 230.768 372.936 230.768C363.016 230.768 354.696 227.504 347.976 220.976C341.32 214.448 337.992 206.192 337.992 196.208C337.992 186.224 341.384 177.904 348.168 171.248C355.016 164.592 363.272 161.264 372.936 161.264C382.6 161.264 390.632 164.08 397.032 169.712L390.984 178.352C388.36 176.112 385.704 174.576 383.016 173.744C380.392 172.848 377.32 172.4 373.8 172.4C367.016 172.4 361.32 174.608 356.712 179.024C352.104 183.376 349.8 189.136 349.8 196.304C349.8 203.408 352.04 209.136 356.52 213.488C361 217.776 366.408 219.92 372.744 219.92C379.144 219.92 384.488 218.544 388.776 215.792V197.36ZM466.616 178.736C462.072 174 456.472 171.632 449.816 171.632C443.16 171.632 437.528 174 432.92 178.736C428.376 183.472 426.104 189.232 426.104 196.016C426.104 202.736 428.376 208.464 432.92 213.2C437.528 217.936 443.16 220.304 449.816 220.304C456.472 220.304 462.072 217.936 466.616 213.2C471.224 208.464 473.528 202.736 473.528 196.016C473.528 189.232 471.224 183.472 466.616 178.736ZM474.968 220.784C468.184 227.376 459.8 230.672 449.816 230.672C439.832 230.672 431.448 227.376 424.664 220.784C417.88 214.128 414.488 205.872 414.488 196.016C414.488 186.096 417.88 177.84 424.664 171.248C431.448 164.592 439.832 161.264 449.816 161.264C459.8 161.264 468.184 164.592 474.968 171.248C481.752 177.84 485.144 186.096 485.144 196.016C485.144 205.872 481.752 214.128 474.968 220.784ZM551.081 178.736C546.537 174 540.937 171.632 534.281 171.632C527.625 171.632 521.993 174 517.385 178.736C512.841 183.472 510.569 189.232 510.569 196.016C510.569 202.736 512.841 208.464 517.385 213.2C521.993 217.936 527.625 220.304 534.281 220.304C540.937 220.304 546.537 217.936 551.081 213.2C555.689 208.464 557.993 202.736 557.993 196.016C557.993 189.232 555.689 183.472 551.081 178.736ZM559.433 220.784C552.649 227.376 544.265 230.672 534.281 230.672C524.297 230.672 515.913 227.376 509.129 220.784C502.345 214.128 498.953 205.872 498.953 196.016C498.953 186.096 502.345 177.84 509.129 171.248C515.913 164.592 524.297 161.264 534.281 161.264C544.265 161.264 552.649 164.592 559.433 171.248C566.217 177.84 569.609 186.096 569.609 196.016C569.609 205.872 566.217 214.128 559.433 220.784ZM610.778 162.896C622.81 162.896 632.058 165.84 638.522 171.728C644.986 177.552 648.218 185.68 648.218 196.112C648.218 206.544 645.082 214.8 638.81 220.88C632.538 226.96 622.938 230 610.01 230H587.738V162.896H610.778ZM636.794 196.4C636.794 181.04 627.994 173.36 610.394 173.36H599.066V219.344H611.642C619.77 219.344 625.978 217.424 630.266 213.584C634.618 209.68 636.794 203.952 636.794 196.4ZM686.928 171.728C683.664 171.728 680.976 172.4 678.864 173.744C676.752 175.088 675.696 177.136 675.696 179.888C675.696 182.576 676.752 184.656 678.864 186.128C680.976 187.536 685.456 189.072 692.304 190.736C699.216 192.4 704.4 194.736 707.856 197.744C711.376 200.752 713.136 205.2 713.136 211.088C713.136 216.912 710.928 221.648 706.512 225.296C702.096 228.944 696.304 230.768 689.136 230.768C678.64 230.768 669.328 227.152 661.2 219.92L668.304 211.376C675.088 217.264 682.128 220.208 689.424 220.208C693.072 220.208 695.952 219.44 698.064 217.904C700.24 216.304 701.328 214.224 701.328 211.664C701.328 209.04 700.304 207.024 698.256 205.616C696.272 204.144 692.816 202.832 687.888 201.68C682.96 200.464 679.216 199.376 676.656 198.416C674.096 197.392 671.824 196.08 669.84 194.48C665.872 191.472 663.888 186.864 663.888 180.656C663.888 174.448 666.128 169.68 670.608 166.352C675.152 162.96 680.752 161.264 687.408 161.264C691.696 161.264 695.952 161.968 700.176 163.376C704.4 164.784 708.048 166.768 711.12 169.328L705.072 177.872C703.088 176.08 700.4 174.608 697.008 173.456C693.616 172.304 690.256 171.728 686.928 171.728ZM786.509 173.264V230H775.181V173.264H754.829V162.896H806.861V173.264H786.509ZM876.51 184.688C876.51 195.76 871.678 202.736 862.014 205.616L879.582 230H865.182L849.15 207.44H834.27V230H822.942V162.896H847.902C858.142 162.896 865.47 164.624 869.886 168.08C874.302 171.536 876.51 177.072 876.51 184.688ZM848.382 197.168C854.782 197.168 859.134 196.176 861.438 194.192C863.742 192.208 864.894 189.04 864.894 184.688C864.894 180.272 863.71 177.264 861.342 175.664C858.974 174 854.75 173.168 848.67 173.168H834.27V197.168H848.382ZM906.13 214.736L899.41 230H887.314L916.882 162.896H928.978L958.546 230H946.45L939.73 214.736H906.13ZM935.122 204.272L922.93 176.624L910.738 204.272H935.122ZM1022.02 162.896H1033.35V230H1021.06L983.044 181.04V230H971.716V162.896H983.044L1022.02 213.008V162.896ZM1076.06 171.728C1072.8 171.728 1070.11 172.4 1068 173.744C1065.89 175.088 1064.83 177.136 1064.83 179.888C1064.83 182.576 1065.89 184.656 1068 186.128C1070.11 187.536 1074.59 189.072 1081.44 190.736C1088.35 192.4 1093.53 194.736 1096.99 197.744C1100.51 200.752 1102.27 205.2 1102.27 211.088C1102.27 216.912 1100.06 221.648 1095.65 225.296C1091.23 228.944 1085.44 230.768 1078.27 230.768C1067.77 230.768 1058.46 227.152 1050.33 219.92L1057.44 211.376C1064.22 217.264 1071.26 220.208 1078.56 220.208C1082.21 220.208 1085.09 219.44 1087.2 217.904C1089.37 216.304 1090.46 214.224 1090.46 211.664C1090.46 209.04 1089.44 207.024 1087.39 205.616C1085.41 204.144 1081.95 202.832 1077.02 201.68C1072.09 200.464 1068.35 199.376 1065.79 198.416C1063.23 197.392 1060.96 196.08 1058.97 194.48C1055.01 191.472 1053.02 186.864 1053.02 180.656C1053.02 174.448 1055.26 169.68 1059.74 166.352C1064.29 162.96 1069.89 161.264 1076.54 161.264C1080.83 161.264 1085.09 161.968 1089.31 163.376C1093.53 164.784 1097.18 166.768 1100.25 169.328L1094.21 177.872C1092.22 176.08 1089.53 174.608 1086.14 173.456C1082.75 172.304 1079.39 171.728 1076.06 171.728ZM1143.15 162.896C1153.33 162.896 1160.75 164.848 1165.43 168.752C1170.1 172.656 1172.43 178.672 1172.43 186.8C1172.43 194.928 1170.03 200.88 1165.23 204.656C1160.5 208.432 1153.2 210.32 1143.35 210.32H1131.44V230H1120.11V162.896H1143.15ZM1144.59 200.048C1150.87 200.048 1155.12 198.864 1157.36 196.496C1159.67 194.064 1160.82 190.544 1160.82 185.936C1160.82 181.264 1159.38 177.968 1156.5 176.048C1153.62 174.128 1149.11 173.168 1142.96 173.168H1131.44V200.048H1144.59ZM1237.39 178.736C1232.84 174 1227.24 171.632 1220.59 171.632C1213.93 171.632 1208.3 174 1203.69 178.736C1199.15 183.472 1196.88 189.232 1196.88 196.016C1196.88 202.736 1199.15 208.464 1203.69 213.2C1208.3 217.936 1213.93 220.304 1220.59 220.304C1227.24 220.304 1232.84 217.936 1237.39 213.2C1242 208.464 1244.3 202.736 1244.3 196.016C1244.3 189.232 1242 183.472 1237.39 178.736ZM1245.74 220.784C1238.96 227.376 1230.57 230.672 1220.59 230.672C1210.6 230.672 1202.22 227.376 1195.44 220.784C1188.65 214.128 1185.26 205.872 1185.26 196.016C1185.26 186.096 1188.65 177.84 1195.44 171.248C1202.22 164.592 1210.6 161.264 1220.59 161.264C1230.57 161.264 1238.96 164.592 1245.74 171.248C1252.52 177.84 1255.92 186.096 1255.92 196.016C1255.92 205.872 1252.52 214.128 1245.74 220.784ZM1327.61 184.688C1327.61 195.76 1322.78 202.736 1313.12 205.616L1330.68 230H1316.28L1300.25 207.44H1285.37V230H1274.04V162.896H1299C1309.24 162.896 1316.57 164.624 1320.99 168.08C1325.4 171.536 1327.61 177.072 1327.61 184.688ZM1299.48 197.168C1305.88 197.168 1310.24 196.176 1312.54 194.192C1314.84 192.208 1316 189.04 1316 184.688C1316 180.272 1314.81 177.264 1312.44 175.664C1310.08 174 1305.85 173.168 1299.77 173.168H1285.37V197.168H1299.48ZM1372.13 173.264V230H1360.81V173.264H1340.45V162.896H1392.49V173.264H1372.13Z" fill="#D2691E"/>
</svg>
